<svg id="Calque_7" data-name="Calque 7" xmlns="http://www.w3.org/2000/svg" viewBox="0 0 2000 2000"><defs><style>.cls-1{font-size:41.11px;font-family:MyriadPro-Regular, Myriad Pro;}.cls-1,.cls-2{fill:#e8d3ad;}</style></defs><title>Signature</title><g id="Calque_4" data-name="Calque 4"><text class="cls-1" transform="translate(1544.05 997.83) rotate(-1.78)">TM</text></g><g id="Calque_9" data-name="Calque 9"><circle class="cls-2" cx="1441.95" cy="1311.36" r="21.82" transform="translate(-39.99 45.37) rotate(-1.78)"/></g><path class="cls-2" d="M1376.08,1241.7s78-95,358.38-164.44c0,0,33.95-12.78,173.21-31.82,0,0,30-11.52,53.79,22.06s4.21,40.72-.9,41.66-192.16,4.34-385.83,89.76S1365,1314.72,1365,1314.72Z"/><path class="cls-2" d="M834.24,437.58l-486,900.2L410.37,1365,865.89,506.68s27.71-39.58-2.17-70C863.72,436.66,845.49,417.11,834.24,437.58Z"/><path class="cls-2" d="M532.46,1121.47S759,1111.5,810.9,820.93c0,0,24.66-209.09-138.59-262.43,0,0-168-82.4-368.06,60.1S95.14,969.7,95.14,969.7,82.57,1192,274.59,1168.56c0,0,104.73-13,153.76-189.73,0,0,2.82-13.72.7-40.26s15-35.51,25.11-36.47,42.51-1.32,45.22,44-4.26,113.7-54.22,176.91-90.59,113.14-175.08,119.66S39.32,1209.93,24,1030.32,142.55,678.13,142.55,678.13s149.51-201.28,377-210.29,318,145.89,318,145.89,82.81,159,10.2,328.72S640.2,1176.34,504.94,1190.57Z"/><path class="cls-2" d="M849.59,1204.06s95.5-59.52,56.69-117.18-119.51-7.36-119.51-7.36c-131.77,83.61-178.61,164.59-181.15,215.4s31.83,97.73,89.4,97.31,145.3-89.52,145.3-89.52l20.9-77.48c-74.54,72.19-107.76,106.23-163.83,110.71s-9-70.08-9-70.08C754.39,1273,849.59,1204.06,849.59,1204.06Zm-1.23-83.94s53.85-31.84.72,23.29-119.78,72.27-119.78,72.27C778.32,1160.68,848.36,1120.12,848.36,1120.12Z"/><path class="cls-2" d="M1201.39,1115.83c22.52-25.38,23.25-46,6.35-60.52s-38.18,6.67-38.18,6.67l-58.48,59.4s13.28-58-75.11-34.69S835.3,1247.79,835.3,1247.79C808.47,1301,791.49,1382.2,850.68,1390s154.4-90.57,154.4-90.57h0c-45.8,141.54,68.49,65.47,68.49,65.47l50.36-40.65,59.91-122.15s-69.51,68.65-106.8,104.09-33.44,27.09-7.49-20.33S1178.87,1141.21,1201.39,1115.83ZM915.16,1303c-36.3,23.06-60.67,42.75-35.36,9.32,0,0,60.16-93.73,168-151.92S951.47,1279.89,915.16,1303Z"/><path class="cls-2" d="M1346.88,1261.3c-4.64-95.74,73.16-185.4,73.16-185.4l27.73-33s7.87-7.69,5.45-17.33-16.19-16-22.16-18.87-15.94-6.41-31.93-3.71-28.75,16.07-28.75,16.07l-41.2,36.44c-58.8,48.89-124.45,121.43-124.45,121.43L1106.31,1285a167.21,167.21,0,0,1-44.25,36.28L1042,1350.57c58.7-3.73,78.42-26.24,78.42-26.24,9.49,12.84,28.85,38.11,28.85,38.11s29.25,29.9,77.33,28.85,83-35.86,83-35.86l104.75-78.48h0l-28.8-44.12Zm-76.17-69.65c-1.8,13.85-2.28,115.9-40.87,142.46s-58.82,7.42-83-16.09l115.31-126.15S1272.51,1177.81,1270.72,1191.65Z"/><path class="cls-2" d="M521.65,1159.74s-10.59,101.06.93,137.66,80.14-58.34,137.44-102.08l12.58,62.78s-72.92,76.23-121.14,111.49c-45.18,33-82,22.08-88.46-59.56s-3.37-108.5-3.37-108.5Z"/><circle class="cls-2" cx="380.97" cy="1347.27" r="34.4" transform="translate(-41.62 12.47) rotate(-1.78)"/></svg>